# xmcd
#
# Track frame offsets:
#	150
#	9450
#	25821
#	49865
#	69792
#	85246
#	102917
#	117854
#	131162
#	144634
#	157375
#	170689
#	185845
#	203799
#	218907
#	231859
#	241701
#	259620
#	279743
#	295304
#
# Disc length: 4157 seconds
#
# Revision: 0
# Processed by: cddbd v1.5.2PL0 Copyright (c) Steve Scherf et al.
# Submitted via: dBpowerAMP V4.0
#
DISCID=2c103b14
DTITLE=Barefoot Man - Then and Now
DYEAR=1900
DGENRE=Other
TTITLE0=Tweet Mr President
TTITLE1=On CNN
TTITLE2=Set The Old Man On Fire
TTITLE3=Susie The Blow Up Doll
TTITLE4=Right Side of the Wrong Bed
TTITLE5=Dance The Politician
TTITLE6=Don't Steal the Coconuts
TTITLE7=Who's Gonna Bait My Hook
TTITLE8=Son Of A Beach
TTITLE9=Sailing The South Seas
TTITLE10=Fake News
TTITLE11=70s Lounge Singer
TTITLE12=Papa Jack
TTITLE13=Coconuts Over You
TTITLE14=It's A Moray
TTITLE15=Ballad of Donald Trump
TTITLE16=She Gave Me The Bird
TTITLE17=Little Footprints In The Sand
TTITLE18=Two Ton Tomamto
TTITLE19=Walking Udell
EXTD=
EXTT0=
EXTT1=
EXTT2=
EXTT3=
EXTT4=
EXTT5=
EXTT6=
EXTT7=
EXTT8=
EXTT9=
EXTT10=
EXTT11=
EXTT12=
EXTT13=
EXTT14=
EXTT15=
EXTT16=
EXTT17=
EXTT18=
EXTT19=
PLAYORDER=
